<svg viewBox="0 0 24 24" fill="none" xmlns="http://www.w3.org/2000/svg"><path fill-rule="evenodd" clip-rule="evenodd" d="M8.71454 16.826C8.7177 17.7092 8.20137 18.5073 7.40665 18.8476C6.61193 19.1878 5.6956 19.0031 5.08554 18.3797C4.47547 17.7563 4.29202 16.8172 4.62085 16.0008C4.94968 15.1845 5.72591 14.652 6.58709 14.652C7.15029 14.6509 7.69084 14.8794 8.08981 15.2871C8.48879 15.6948 8.71351 16.2483 8.71454 16.826Z" stroke="currentColor" stroke-width="1.5" stroke-linecap="round" stroke-linejoin="round"/><path fill-rule="evenodd" clip-rule="evenodd" d="M19.1636 16.826C19.1667 17.7092 18.6504 18.5073 17.8557 18.8476C17.061 19.1878 16.1446 19.0031 15.5346 18.3797C14.9245 17.7563 14.7411 16.8172 15.0699 16.0008C15.3987 15.1845 16.1749 14.652 17.0361 14.652C17.5993 14.6509 18.1399 14.8794 18.5388 15.2871C18.9378 15.6948 19.1625 16.2483 19.1636 16.826Z" stroke="currentColor" stroke-width="1.5" stroke-linecap="round" stroke-linejoin="round"/><path d="M2.61096 9.99042C2.46815 10.3792 2.66758 10.8102 3.05639 10.953C3.44521 11.0958 3.87618 10.8964 4.01899 10.5076L2.61096 9.99042ZM9.04678 5V10.249H10.5468V5H9.04678ZM0.974976 13.75H2.91815V12.25H0.974976V13.75ZM22.425 12.25H20.3999V13.75H22.425V12.25Z" fill="currentColor"/></svg>
