<svg viewBox="0 0 24 24" fill="none" xmlns="http://www.w3.org/2000/svg"><path d="M12 15C13.6569 15 15 13.6569 15 12C15 10.3431 13.6569 9 12 9C10.3431 9 9 10.3431 9 12C9 13.6569 10.3431 15 12 15Z" stroke="currentColor" stroke-width="2"/><path d="M19.622 10.395L18.413 8.29C18.1822 7.87472 17.7557 7.60683 17.286 7.58L15 7.5C14.5 6.9 13.8 6.4 13 6.1L12.5 4C12.3728 3.41165 11.8488 2.99312 11.247 3H12.753C12.1512 2.99312 11.6272 3.41165 11.5 4L11 6.1C10.2 6.4 9.5 6.9 9 7.5L6.714 7.58C6.24429 7.60683 5.81782 7.87472 5.587 8.29L4.378 10.395C4.10357 10.9177 4.18674 11.5555 4.587 11.99L6.1 13.5C6.03333 13.8333 6 14.1667 6 14.5C6 14.8333 6.03333 15.1667 6.1 15.5L4.587 17.01C4.18674 17.4445 4.10357 18.0823 4.378 18.605L5.587 20.71C5.81782 21.1253 6.24429 21.3932 6.714 21.42L9 21.5C9.5 22.1 10.2 22.6 11 22.9L11.5 25C11.6272 25.5884 12.1512 26.0069 12.753 26H11.247C11.8488 26.0069 12.3728 25.5884 12.5 25L13 22.9C13.8 22.6 14.5 22.1 15 21.5L17.286 21.42C17.7557 21.3932 18.1822 21.1253 18.413 20.71L19.622 18.605C19.8964 18.0823 19.8133 17.4445 19.413 17.01L17.9 15.5C17.9667 15.1667 18 14.8333 18 14.5C18 14.1667 17.9667 13.8333 17.9 13.5L19.413 11.99C19.8133 11.5555 19.8964 10.9177 19.622 10.395Z" stroke="currentColor" stroke-width="2" stroke-linecap="round" stroke-linejoin="round"/></svg>
